<?xml version="1.0" encoding="utf-8"?>
<!-- Generator: Adobe Illustrator 17.0.0, SVG Export Plug-In . SVG Version: 6.00 Build 0)  -->
<!DOCTYPE svg PUBLIC "-//W3C//DTD SVG 1.1//EN" "http://www.w3.org/Graphics/SVG/1.1/DTD/svg11.dtd">
<svg version="1.1" id="图层_1" xmlns="http://www.w3.org/2000/svg" xmlns:xlink="http://www.w3.org/1999/xlink" x="0px" y="0px"
	 width="500px" height="100px" viewBox="0 0 100 20" enable-background="new 0 0 100 20" xml:space="preserve">
<g>
	<g>
		<path fill="#040000" d="M4.252,17.354H3.523v-0.452h1.508v1.408c-0.268,0.05-0.545,0.075-0.83,0.075
			c-0.218,0.017-0.495,0.025-0.829,0.025c-1.14-0.033-1.726-0.503-1.76-1.408c0.033-0.904,0.62-1.391,1.76-1.457
			c1.139,0,1.709,0.301,1.709,0.904h-0.83c0-0.318-0.251-0.478-0.754-0.478c-0.687,0.017-1.031,0.361-1.031,1.031
			c0,0.67,0.343,1.005,1.031,1.005c0.201,0,0.436-0.016,0.704-0.05c0.016,0,0.033,0,0.05,0L4.252,17.354L4.252,17.354z"/>
		<path fill="#040000" d="M6.665,17.279v1.106H5.861v-2.79h1.584c0.855,0.017,1.282,0.26,1.282,0.729
			c0,0.369-0.251,0.595-0.754,0.678v0.025c0.369,0.017,0.586,0.218,0.654,0.603c0,0.034,0.008,0.068,0.025,0.101
			c0.033,0.335,0.101,0.553,0.201,0.654H7.998c-0.085-0.235-0.134-0.486-0.151-0.754C7.813,17.397,7.704,17.28,7.52,17.28
			L6.665,17.279L6.665,17.279z M6.665,16.072v0.729h0.654c0.369,0,0.562-0.126,0.578-0.377c-0.016-0.235-0.209-0.352-0.578-0.352
			H6.665z"/>
		<path fill="#040000" d="M9.379,18.385v-2.79h2.489v0.478h-1.685v0.654h1.558v0.452h-1.558v0.754h1.734v0.452H9.379z"/>
		<path fill="#040000" d="M13.125,18.385h-0.754l1.332-2.79h0.955l1.307,2.79h-0.804l-0.277-0.579h-1.483L13.125,18.385z
			 M13.603,17.329h1.081l-0.503-1.181h-0.025L13.603,17.329z"/>
		<path fill="#040000" d="M16.091,16.072v-0.478h3.017v0.478h-1.106v2.313h-0.804v-2.313H16.091z"/>
		<path fill="#040000" d="M22.426,17.706l0.729-2.111h0.905l0.654,2.111l0.603-2.111h0.754l-0.955,2.79h-0.88l-0.654-2.111
			l-0.729,2.111h-0.904l-0.905-2.79h0.83L22.426,17.706z"/>
		<path fill="#040000" d="M26.975,18.385h-0.754l1.332-2.79h0.955l1.307,2.79h-0.804l-0.277-0.579h-1.483L26.975,18.385z
			 M27.453,17.329h1.081l-0.503-1.181h-0.025L27.453,17.329z"/>
		<path fill="#040000" d="M32.706,18.385h-2.388v-2.79h0.779v2.338h1.609V18.385z"/>
		<path fill="#040000" d="M35.673,18.385h-2.388v-2.79h0.779v2.338h1.609L35.673,18.385L35.673,18.385z"/>
		<path fill="#040000" d="M38.413,18.385h-0.754l1.332-2.79h0.955l1.307,2.79h-0.804l-0.276-0.579H38.69L38.413,18.385z
			 M38.89,17.329h1.081l-0.503-1.181h-0.026L38.89,17.329z"/>
		<path fill="#040000" d="M44.219,15.594h0.804v1.76c-0.034,0.687-0.57,1.039-1.609,1.056c-1.056-0.016-1.601-0.368-1.634-1.056
			v-1.76h0.804v1.533c-0.05,0.62,0.226,0.914,0.83,0.88c0.569,0.034,0.838-0.26,0.804-0.88L44.219,15.594L44.219,15.594z"/>
		<path fill="#040000" d="M45.576,16.072v-0.478h3.017v0.478h-1.106v2.313h-0.804v-2.313H45.576z"/>
		<path fill="#040000" d="M50.729,18.41c-1.173-0.016-1.768-0.486-1.784-1.408c0.016-0.938,0.612-1.424,1.784-1.457
			c1.139,0.033,1.726,0.52,1.76,1.457C52.455,17.924,51.869,18.393,50.729,18.41z M50.729,15.972c-0.637,0-0.955,0.344-0.955,1.031
			c0,0.687,0.318,1.022,0.955,1.005c0.62,0,0.93-0.335,0.93-1.005C51.659,16.315,51.349,15.972,50.729,15.972z"/>
		<path fill="#040000" d="M55.581,18.385h-0.654l-0.98-2.388h-0.025v2.388h-0.754v-2.79h1.307l0.779,2.036h0.025l0.855-2.036h1.232
			v2.79h-0.729v-2.388L55.581,18.385z"/>
		<path fill="#040000" d="M59.854,18.41c-1.173-0.016-1.768-0.486-1.784-1.408c0.016-0.938,0.612-1.424,1.784-1.457
			c1.139,0.033,1.726,0.52,1.76,1.457C61.58,17.924,60.993,18.393,59.854,18.41z M59.854,15.972c-0.637,0-0.955,0.344-0.955,1.031
			c0,0.687,0.318,1.022,0.955,1.005c0.62,0,0.93-0.335,0.93-1.005C60.784,16.315,60.474,15.972,59.854,15.972z"/>
		<path fill="#040000" d="M61.991,16.072v-0.478h3.016v0.478h-1.106v2.313h-0.804v-2.313H61.991z"/>
		<path fill="#040000" d="M66.289,15.594v2.79h-0.805v-2.79H66.289z"/>
		<path fill="#040000" d="M68.099,18.385l-1.357-2.79h0.855l0.98,2.212l0.98-2.212h0.779l-1.357,2.79H68.099z"/>
		<path fill="#040000" d="M70.763,18.385v-2.79h2.489v0.478h-1.685v0.654h1.558v0.452h-1.558v0.754h1.734v0.452H70.763z"/>
		<path fill="#040000" d="M76.695,18.385h-0.779v-2.79h2.388v0.478h-1.609v0.654h1.509v0.478h-1.509V18.385z"/>
		<path fill="#040000" d="M79.637,15.594v2.79h-0.804v-2.79H79.637z"/>
		<path fill="#040000" d="M83.784,18.385h-1.132l-1.458-2.313h-0.026v2.313H80.44v-2.79h1.181l1.408,2.212l0.025-0.025v-2.187h0.729
			L83.784,18.385L83.784,18.385z"/>
		<path fill="#040000" d="M85.015,18.385h-0.754l1.332-2.79h0.955l1.307,2.79h-0.804l-0.277-0.579h-1.483L85.015,18.385z
			 M85.493,17.329h1.081l-0.503-1.181h-0.026L85.493,17.329z"/>
		<path fill="#040000" d="M91.677,18.385h-1.131l-1.458-2.313h-0.025v2.313h-0.729v-2.79h1.181l1.408,2.212l0.025-0.025v-2.187
			h0.729L91.677,18.385L91.677,18.385z"/>
		<path fill="#040000" d="M95.423,16.5h-0.83c-0.033-0.335-0.277-0.511-0.729-0.528c-0.452,0.017-0.687,0.361-0.704,1.031
			c0.016,0.67,0.251,1.005,0.704,1.005c0.452,0,0.696-0.176,0.729-0.528h0.83c-0.05,0.62-0.57,0.93-1.558,0.93
			c-1.005-0.016-1.525-0.486-1.558-1.408c0.033-0.938,0.553-1.424,1.558-1.457C94.853,15.561,95.372,15.879,95.423,16.5z"/>
		<path fill="#040000" d="M95.95,18.385v-2.79h2.488v0.478h-1.684v0.654h1.558v0.452h-1.558v0.754h1.734v0.452H95.95z"/>
	</g>
	<g>
		<rect x="1.484" y="6.369" fill="#C21820" width="13.589" height="1.48"/>
		<path fill="#C21820" d="M5.325,2.22c0,0,0,8.415,0,8.525c0,0.151,0.013,0.323,0.342,0.323c0.22,0,2.639,0,2.639,0v1.405
			c0,0-3.539,0-4.12,0c-0.583,0-1.222-0.341-1.222-1.05c0-0.357,0-9.202,0-9.202L5.325,2.22L5.325,2.22z"/>
		<path fill="#C21820" d="M6.063,4.082c-0.559,0-0.574,0-1.22,0L4.829,5.485c0.618,0,0.93,0,1.467,0
			c5.603,0,7.403-1.836,8.701-3.232c-0.701-0.001-2.058,0-2.62,0C11.078,3.247,9.676,4.082,6.063,4.082z"/>
		<path fill="#C21820" d="M13.53,10.988c-0.511,0-0.89,0.019-1.339-0.649c-0.589-0.869-1.374-2.048-2.208-3.298H7.441
			c0.99,1.489,1.848,2.773,2.665,3.993c0.941,1.41,1.738,1.408,2.702,1.408c0.365,0,2.21,0,2.21,0v-1.455
			C14.05,10.988,13.77,10.988,13.53,10.988z"/>
	</g>
	<path fill="#C21820" d="M71.94,9.102c0.268,1.058,0.318,2.214,0.318,2.214h-1.943c0,0-0.112-1.2-0.367-2.214H71.94z"/>
	<path fill="#C21820" d="M78.122,9.102c-0.268,1.058-0.318,2.214-0.318,2.214h1.943c0,0,0.112-1.2,0.367-2.214H78.122z"/>
	<path fill="#C21820" d="M68.269,3.519h0.606c0.455,0.051,0.782-0.049,0.985-0.303l0.909-1.061h8.563l0.985,0.985
		c0.252,0.202,0.631,0.303,1.137,0.303h0.455v1.364h-1.819c-0.758,0.051-1.314-0.202-1.667-0.758l-0.531-0.531h-5.608l-0.91,0.834
		c-0.253,0.405-0.784,0.581-1.591,0.531h-1.516V3.519z"/>
	<polygon fill="#C21820" points="68.572,6.551 68.572,5.262 81.606,5.262 81.606,6.551 76.226,6.551 76.226,7.233 81.606,7.233 
		81.606,8.445 76.15,8.445 76.15,11.325 81.909,11.325 81.909,12.538 68.344,12.538 68.344,11.325 74.028,11.325 74.028,8.521 
		68.572,8.521 68.572,7.233 73.952,7.233 73.952,6.551 	"/>
	<g>
		<path fill="#C21820" d="M84.84,6.964v5.492h2.015v-1.724h0.8v1.724h1.907v-1.724h0.861v0.411c0,0.16-0.077,0.308-0.293,0.297
			v1.016h1.077c0.538,0,0.953-0.457,0.953-0.822v-4.67L84.84,6.964L84.84,6.964z M90.423,9.487h-0.585l0.446-1.199H89.1
			l-0.415,1.199h-0.2l-0.354-1.199h-1.107l0.308,1.199h-0.477V8.14h3.568L90.423,9.487L90.423,9.487z"/>
		<path fill="#C21820" d="M85.117,4.018v2.535h5.629c0.507,0,0.954-0.114,1.138-0.491c0.046-0.046,0.092-0.182,0.092-0.251V4.018
			L85.117,4.018L85.117,4.018z M90.422,5.284c0,0.128-0.094,0.152-0.148,0.152c-0.054,0-0.113,0-0.113,0h-0.191h-2.084h-1.007V4.97
			h3.543L90.422,5.284L90.422,5.284z"/>
		<path fill="#C21820" d="M97.405,10.001v0.925h-0.91V9.727c0.261,0,0.834,0,1.095,0c0.385-0.011,0.769-0.285,0.923-0.525
			c0.016-0.011,0.092-0.137,0.092-0.16V2.83h-2.11V2.236h-1.727V2.83h-1.976v6.896h1.976v1.165h-2.084v1.542h4.952
			c0.031,0,0.169-0.034,0.2-0.046c0.446-0.103,0.707-0.354,0.83-0.674c0.031-0.057,0.077-0.217,0.077-0.263V10L97.405,10.001
			L97.405,10.001z M94.762,8.161H94.13V4.507h0.633V8.161z M96.489,4.506h0.634v3.447c0,0.209-0.219,0.207-0.219,0.207h-0.41
			C96.506,8.17,96.489,4.506,96.489,4.506z"/>
		<rect x="84.923" y="2.396" fill="#C21820" width="7.338" height="1.263"/>
	</g>
	<path fill="#C21820" d="M22.773,3.1h4.935V2.19h1.944V3.1h0.449c0.249,0,0.374-0.101,0.374-0.303V2.569h1.42v0.985
		c0.048,0.606-0.325,0.885-1.122,0.834h-1.122v4.774h0.149c0.15,0.051,0.225-0.049,0.225-0.303V5.07h1.495v4.319
		c0.049,0.86-0.325,1.239-1.122,1.137h-0.748v0.303c0,0.254,0.123,0.379,0.374,0.379h1.57v1.137h-2.393
		c-1.147,0.102-1.645-0.303-1.495-1.213V4.388h-2.991v0.834h2.467v6.138c0.1,0.708-0.324,1.037-1.271,0.985h-1.197v-0.682
		c-0.05,0.606-0.299,0.885-0.748,0.834h-5.907v-1.061h1.047V4.464h-1.047V3.176h1.047V2.342h2.019v0.834H22.1v1.288h-0.973v6.896
		h1.197c0.348,0.051,0.497-0.076,0.449-0.379L22.773,3.1L22.773,3.1z M25.016,11.284c0.198,0.051,0.299-0.025,0.299-0.227V6.51
		h-0.598v4.774H25.016z"/>
	<path fill="#C21820" d="M39.515,9.165l-1.046,2.425c-0.2,0.606-0.624,0.885-1.271,0.834h-2.393v-1.137h1.122
		c0.25,0,0.399-0.101,0.449-0.303l0.673-1.819H39.515z M34.88,2.118h2.393l0.598,1.44c0,0.254,0.124,0.354,0.374,0.303h0.823v1.288
		h-1.869c-0.848,0.051-1.322-0.152-1.42-0.606L34.88,2.118z M34.88,5.604h2.318l0.598,1.516c0.049,0.202,0.175,0.277,0.374,0.227
		h0.897v1.212h-1.944c-0.897,0.102-1.396-0.125-1.495-0.681L34.88,5.604z M39.441,4.24V3.027h1.047c0.25,0,0.423-0.076,0.524-0.228
		l0.449-0.682h2.318l-0.225,0.455h5.01v1.44h-5.906c-0.35,0.152-0.674,0.228-0.973,0.228L39.441,4.24L39.441,4.24z M39.59,6.059
		V4.694h8.897v1.364H39.59z M39.59,11.287l5.382-3.258H39.59V6.741h8.897v1.288l-5.457,3.258h5.457v1.288H39.59V11.287z"/>
	<path fill="#C21820" d="M51.695,2.648h2.542l0.374-0.455h2.841l-0.3,0.455h8v1.819h-8.897L54.76,6.665h2.542V5.149h2.767v1.516
		h5.084v1.667h-5.084v1.439h5.009v1.667h-5.009v1.061h-2.767v-1.061H51.62V9.771h5.682V8.332h-5.607V6.741l1.57-2.274h-1.57
		L51.695,2.648L51.695,2.648z"/>
</g>
</svg>
